# xmcd
#
# Track frame offsets:
#	150
#	14749
#	30096
#	47613
#	65297
#	84368
#	102357
#	120253
#	133214
#	148258
#	162557
#	179758
#	193772
#
# Disc length: 2766 seconds
#
# Revision: 0
# Processed by: cddbd v1.5.2PL0 Copyright (c) Steve Scherf et al.
# Submitted via: EasyCDDAExtractor 9.0.0.1
#
DISCID=b50acc0d
DTITLE=Various Artist - CDX Volume 405
DYEAR=2006
DGENRE=Country
TTITLE0=Sammy Kershaw - Baby's Got Her Blue Jeans On
TTITLE1=Carrie Underwood - Before He Cheats
TTITLE2=Lindsey Haun - Broken
TTITLE3=Rhett Akins - If Heaven Wasn't So Far Away
TTITLE4=Jamie O'Neal and Michael McDonald - I Still Believe In You
TTITLE5=Jake Owen - Startin' With Me
TTITLE6=Rodney Atkins - Watching You
TTITLE7=Lucy Angel - How Long
TTITLE8=Sonny Burgess - A Little Bit Stronger
TTITLE9=G. Bush - Country Country
TTITLE10=Natalie Stovall - If I Run To You Now
TTITLE11=Trent Bourgeois - Troublemaker
TTITLE12=Charlie Louvin - The Silence Of Aging
EXTD=
EXTT0=
EXTT1=
EXTT2=
EXTT3=
EXTT4=
EXTT5=
EXTT6=
EXTT7=
EXTT8=
EXTT9=
EXTT10=
EXTT11=
EXTT12=
PLAYORDER=
